# xmcd
#
# Track frame offsets:
#	150
#	15863
#	34450
#	50464
#	67436
#	82279
#	94562
#	112182
#	129223
#	143013
#	162889
#	175161
#	194386
#	215956
#	224999
#	242770
#	259808
#
# Disc length: 3710 seconds
#
# Revision: 1
# Processed by: cddbd v1.5.2PL0 Copyright (c) Steve Scherf et al.
# Submitted via: audiograbber 1.83.01
#
DISCID=0a0e7c11
DTITLE=Leo - Spielball
DYEAR=2007
DGENRE=Austro
TTITLE0=Sweet Honey
TTITLE1=Spielball
TTITLE2=Über Den Wolken
TTITLE3=Baby Die
TTITLE4=Like A Train
TTITLE5=Umbrella
TTITLE6=Rollin'
TTITLE7=Two Miles To Go
TTITLE8=Where Did You Go
TTITLE9=Without Any Girls
TTITLE10=Be It
TTITLE11=Allein Sein Das Tut Weh
TTITLE12=I Shot J.F.K.
TTITLE13=Loneliness
TTITLE14=Come Back home/XMas
TTITLE15=Dancing
TTITLE16=Rollin' (Duett)
EXTD=
EXTT0=
EXTT1=
EXTT2=
EXTT3=
EXTT4=
EXTT5=
EXTT6=
EXTT7=
EXTT8=
EXTT9=
EXTT10=
EXTT11=
EXTT12=
EXTT13=
EXTT14=
EXTT15=
EXTT16=
PLAYORDER=
